#!OML:ASF E:\Mandelcareful walks\Project 1\Capture day 1\Session 1\Subject1.ASF
:FULLY-SPECIFIED
:DEGREES
674
root 38.3108 14.5358 -0.21683 -153.03 -24.0863 165.155
lowerback 31.7905 -1.21708 1.4237
upperback 6.2241 -2.6514 -2.35494
thorax -9.73562 -1.78713 -2.19872
lowerneck -22.6224 14.8772 8.41854
upperneck 7.49156 21.5712 -24.5598
head 10.0548 8.05646 -6.06293
rclavicle 1.51076e-014 7.15625e-015
rhumerus -14.1433 1.26648 -69.4423
rradius 70.892
rwrist -17.3189
rhand -20.1469 -21.2806
rfingers 7.12502
rthumb 6.19798 -51.1699
lclavicle 1.51076e-014 7.15625e-015
lhumerus -3.74357 -30.6858 66.6482
lradius 74.591
lwrist 20.2857
lhand -22.6744 -21.0711
lfingers 7.12502
lthumb 3.75755 8.87557
rfemur -69.5344 -16.9953 14.5503
rtibia 72.824
rfoot -23.1344 -8.75428
rtoes 0.277516
lfemur -49.1496 26.6714 -16.3243
ltibia 66.8868
lfoot -16.4666 11.731
ltoes -16.6828
675
root 38.248 14.5575 -0.297898 -152.758 -23.8065 164.613
lowerback 31.8422 -0.883758 1.4502
upperback 6.3639 -2.32599 -3.02517
thorax -9.62464 -1.64881 -3.04349
lowerneck -22.5223 15.0003 9.37358
upperneck 7.75568 21.6235 -24.7741
head 10.2831 8.09999 -6.27366
rclavicle -2.3059e-014 -2.38542e-014
rhumerus -14.5228 0.29486 -69.569
rradius 71.1075
rwrist -17.5645
rhand -20.8675 -21.8799
rfingers 7.12502
rthumb 5.50228 -51.7884
lclavicle -2.3059e-014 -2.38542e-014
lhumerus -3.38571 -31.3757 65.9601
lradius 74.8826
lwrist 20.2398
lhand -22.3304 -20.9172
lfingers 7.12502
lthumb 4.0897 9.02331
rfemur -69.1705 -17.3605 13.7821
rtibia 72.8645
rfoot -23.5335 -8.31329
rtoes 1.0686
lfemur -48.1094 25.8702 -15.6089
ltibia 61.7178
lfoot -15.8601 13.8389
ltoes -12.8227
676
root 38.169 14.5796 -0.359537 -152.39 -23.9594 164.165
lowerback 31.806 -1.11175 1.33917
upperback 6.32768 -2.64571 -3.0159
thorax -9.66689 -1.79274 -2.85612
lowerneck -21.9512 15.1688 8.62732
upperneck 7.50381 22.0319 -24.7432
head 10.0753 8.32801 -6.07118
rclavicle -3.97569e-015 -4.77083e-015
rhumerus -14.2035 1.52935 -69.0735
rradius 71.2875
rwrist -18.2401
rhand -21.9372 -22.6251
rfingers 7.12502
rthumb 4.46946 -52.558
lclavicle -3.97569e-015 -4.77083e-015
lhumerus -4.32556 -30.0857 66.6842
lradius 74.96
lwrist 19.9333
lhand -22.2284 -20.9564
lfingers 7.12502
lthumb 4.18824 8.98222
rfemur -68.9891 -18.1556 13.3479
rtibia 72.8618
rfoot -23.6134 -8.07729
rtoes 0.768306
lfemur -47.2323 24.2406 -14.5693
ltibia 56.6371
lfoot -13.6896 16.2756
ltoes -8.06431
677
root 38.0891 14.595 -0.418977 -152.285 -23.911 164.149
lowerback 31.9305 -1.27991 1.04406
upperback 6.25929 -2.92416 -2.75792
thorax -9.78075 -1.91347 -2.31604
lowerneck -21.5807 15.3551 7.38255
upperneck 7.17249 22.5316 -24.6488
head 9.8177 8.57081 -5.75214
rclavicle -4.77083e-015 3.26007e-014
rhumerus -13.5313 3.13814 -68.4068
rradius 71.2638
rwrist -18.5001
rhand -21.6826 -22.5437
rfingers 7.12502
rthumb 4.71525 -52.4712
lclavicle -4.77083e-015 3.26007e-014
lhumerus -5.54622 -28.3147 67.7099
lradius 74.9467
lwrist 19.5201
lhand -22.512 -20.8072
lfingers 7.12502
lthumb 3.91434 9.13657
rfemur -68.7499 -18.3926 13.1121
rtibia 72.8644
rfoot -23.6926 -8.06467
rtoes -0.0617223
lfemur -46.1165 22.8167 -13.0214
ltibia 51.8247
lfoot -10.7896 18.5069
ltoes -3.0762
678
root 38.0066 14.6033 -0.482792 -152.41 -23.3039 164.051
lowerback 32.2256 -0.724701 0.916262
upperback 6.46017 -2.37972 -3.29932
thorax -9.6761 -1.67974 -3.01726
lowerneck -21.898 15.3529 8.33177
upperneck 7.49652 22.4141 -24.8944
head 10.121 8.48327 -5.98989
rclavicle -3.26007e-014 -1.35174e-014
rhumerus -13.7793 2.06208 -68.3667
rradius 71.4097
rwrist -18.177
rhand -20.3898 -21.8298
rfingers 7.12502
rthumb 5.96346 -51.7259
lclavicle -3.26007e-014 -1.35174e-014
lhumerus -5.02486 -29.1843 66.9971
lradius 75.0834
lwrist 19.9177
lhand -22.8441 -20.6537
lfingers 7.12502
lthumb 3.59365 9.29579
rfemur -68.2667 -18.1703 12.4932
rtibia 72.8697
rfoot -23.8823 -8.0249
rtoes -0.884166
lfemur -44.3771 21.6898 -11.4223
ltibia 47.4143
lfoot -8.6943 19.7408
ltoes 2.5637
679
root 37.9107 14.5994 -0.52439 -152.161 -23.2047 163.97
lowerback 32.0757 -0.48554 1.49256
upperback 6.54179 -1.96748 -3.9464
thorax -9.55098 -1.50372 -4.17446
lowerneck -21.8729 15.2882 9.59853
upperneck 7.74651 22.1186 -25.1728
head 10.3502 8.36589 -6.34901
rclavicle -4.77083e-015 2.62396e-014
rhumerus -14.5176 0.94971 -68.5232
rradius 71.8714
rwrist -18.1232
rhand -20.2565 -21.6087
rfingers 7.12502
rthumb 6.0922 -51.5011
lclavicle -4.77083e-015 2.62396e-014
lhumerus -4.32393 -30.5021 66.0013
lradius 75.1569
lwrist 20.4903
lhand -22.8395 -20.8219
lfingers 7.12502
lthumb 3.59813 9.12748
rfemur -68.3047 -18.4955 12.304
rtibia 72.9726
rfoot -24.0059 -8.11871
rtoes -2.02095
lfemur -43.3758 20.092 -9.74638
ltibia 43.629
lfoot -5.4435 20.0228
ltoes -3.48172
680
root 37.8085 14.5989 -0.573371 -152.432 -22.4265 164.145
lowerback 32.3436 0.0444819 1.52405
upperback 6.66213 -1.39068 -4.45533
thorax -9.50114 -1.25286 -4.94544
lowerneck -21.8391 15.1737 10.0374
upperneck 7.76092 21.8315 -25.0949
head 10.3341 8.27135 -6.45802
rclavicle 1.66979e-014 3.18055e-015
rhumerus -14.8932 0.271677 -68.61
rradius 72.1281
rwrist -18.0839
rhand -20.6041 -21.5922
rfingers 7.12502
rthumb 5.75657 -51.494
lclavicle 1.66979e-014 3.18055e-015
lhumerus -4.05192 -31.0383 65.62
lradius 75.0949
lwrist 20.4833
lhand -22.6624 -21.0444
lfingers 7.12502
lthumb 3.7691 8.90202
rfemur -67.948 -18.2842 11.8795
rtibia 72.9331
rfoot -24.0009 -8.03366
rtoes -3.01872
lfemur -41.7397 18.4556 -7.94303
ltibia 40.6298
lfoot -2.70786 19.1371
ltoes -7.49728
681
root 37.7249 14.5817 -0.585735 -152.164 -22.6568 164.092
lowerback 32.4744 -0.0782086 1.35267
upperback 6.52761 -1.57607 -4.35765
thorax -9.71155 -1.33152 -4.67805
lowerneck -21.3177 15.2781 9.54299
upperneck 7.23554 22.0018 -25.0425
head 10.0226 8.41866 -6.33494
rclavicle 4.77083e-014 -8.74653e-015
rhumerus -14.5223 0.866725 -68.331
rradius 72.0547
rwrist -18.0923
rhand -20.6064 -21.5388
rfingers 7.12502
rthumb 5.75434 -51.4407
lclavicle 4.77083e-014 -8.74653e-015
lhumerus -4.72397 -30.1005 66.1858
lradius 75.071
lwrist 20.2857
lhand -22.5331 -21.1619
lfingers 7.12502
lthumb 3.89397 8.78225
rfemur -68.2068 -18.7787 11.8528
rtibia 73.1664
rfoot -23.9818 -8.26588
rtoes -3.81532
lfemur -41.5229 17.2314 -6.60645
ltibia 38.4688
lfoot 0.551846 17.0272
ltoes -11.9653
682
root 37.5453 14.5873 -0.631631 -152.273 -21.7031 163.753
lowerback 32.1161 0.0388754 1.07756
upperback 6.73941 -1.61115 -4.76634
thorax -9.35416 -1.35854 -4.95428
lowerneck -20.809 15.491 9.27471
upperneck 6.73728 22.2944 -25.0947
head 9.78971 8.62022 -6.25643
rclavicle 3.33958e-014 -1.19271e-014
rhumerus -14.3237 1.51447 -68.1266
rradius 72.166
rwrist -18.1484
rhand -20.8799 -21.8399
rfingers 7.12502
rthumb 5.49034 -51.7488
lclavicle 3.33958e-014 -1.19271e-014
lhumerus -5.17902 -29.395 66.4026
lradius 75.0119
lwrist 20.0769
lhand -22.4276 -21.1219
lfingers 7.12502
lthumb 3.99589 8.82037
rfemur -67.7676 -19.1539 10.5491
rtibia 73.146
rfoot -23.9193 -7.46419
rtoes -4.19963
lfemur -40.2823 15.0101 -5.92587
ltibia 37.1513
lfoot 1.62158 17.1916
ltoes -12.0375
683
root 37.4306 14.5743 -0.642077 -152.369 -21.6122 163.922
lowerback 32.4203 0.312267 1.7103
upperback 6.64532 -1.13736 -5.38899
thorax -9.57519 -1.15632 -6.14505
lowerneck -20.4282 15.3111 10.5173
upperneck 6.92782 21.8072 -25.0982
head 9.84572 8.47585 -6.5755
rclavicle -1.43125e-014 1.11319e-014
rhumerus -15.4055 0.144635 -68.4875
rradius 72.4804
rwrist -17.9455
rhand -20.9768 -22.0055
rfingers 7.12502
rthumb 5.39675 -51.9168
lclavicle -1.43125e-014 1.11319e-014
lhumerus -5.09759 -30.8137 65.8359
lradius 75.1611
lwrist 19.9752
lhand -22.4503 -21.0416
lfingers 7.12502
lthumb 3.97395 8.90111
rfemur -67.5649 -19.1273 10.0823
rtibia 73.3364
rfoot -24.1485 -7.18227
rtoes -3.09626
lfemur -40.0942 13.9694 -4.97414
ltibia 36.5977
lfoot 3.75621 16.1951
ltoes -12.7049
684
root 37.3094 14.5563 -0.648288 -152.592 -21.4322 164.146
lowerback 32.785 0.437785 1.59985
upperback 6.65364 -1.04568 -5.41884
thorax -9.70009 -1.12129 -6.14892
lowerneck -20.3797 15.3472 10.3512
upperneck 6.84616 21.8707 -25.0212
head 9.78811 8.51785 -6.50896
rclavicle 1.03368e-014 1.35174e-014
rhumerus -15.3144 0.310609 -68.3301
rradius 72.5577
rwrist -18.0883
rhand -20.9003 -21.7723
rfingers 7.12502
rthumb 5.47056 -51.6817
lclavicle 1.03368e-014 1.35174e-014
lhumerus -5.89969 -30.1578 66.6341
lradius 75.25
lwrist 19.5702
lhand -22.6404 -21.1459
lfingers 7.12502
lthumb 3.79038 8.80014
rfemur -67.2765 -19.0346 9.59205
rtibia 73.5065
rfoot -24.2998 -6.9514
rtoes -2.68667
lfemur -39.9795 13.3507 -4.34338
ltibia 36.788
lfoot 4.95751 15.4638
ltoes -12.848
685
root 37.1607 14.5233 -0.64016 -152.445 -21.3283 164.466
lowerback 32.4388 0.214004 1.27956
upperback 6.79961 -1.39155 -5.02751
thorax -9.41298 -1.27289 -5.4216
lowerneck -20.7432 15.7028 9.01671
upperneck 6.34043 22.5543 -24.9763
head 9.63437 8.78379 -6.11274
rclavicle 3.18055e-015 -1.43125e-014
rhumerus -14.1365 1.81492 -67.8222
rradius 72.5279
rwrist -18.4269
rhand -21.0924 -21.8394
rfingers 7.12502
rthumb 5.2851 -51.7535
lclavicle 3.18055e-015 -1.43125e-014
lhumerus -6.7698 -27.9573 67.7954
lradius 75.1539
lwrist 18.9015
lhand -22.7362 -21.219
lfingers 7.12502
lthumb 3.69783 8.72868
rfemur -67.6841 -19.36 9.5099
rtibia 73.7857
rfoot -24.0829 -6.99201
rtoes -4.79488
lfemur -40.557 13.0341 -4.03061
ltibia 37.6732
lfoot 4.61888 15.327
ltoes -14.2433
686
root 37.0128 14.5012 -0.624716 -152.681 -21.209 164.787
lowerback 32.6853 0.311803 1.55516
upperback 6.8728 -1.22838 -5.22429
thorax -9.42731 -1.21143 -5.8416
lowerneck -20.806 15.7328 9.34102
upperneck 6.27776 22.5134 -25.0349
head 9.66464 8.77295 -6.18474
rclavicle 5.56597e-014 3.73715e-014
rhumerus -14.3349 1.39902 -67.9273
rradius 72.7045
rwrist -18.3845
rhand -21.1697 -22.1395
rfingers 7.12502
rthumb 5.21054 -52.0554
lclavicle 5.56597e-014 3.73715e-014
lhumerus -7.01653 -28.1176 67.7951
lradius 75.3334
lwrist 18.7791
lhand -22.7 -21.0002
lfingers 7.12502
lthumb 3.73279 8.94689
rfemur -67.3924 -19.0576 8.95574
rtibia 73.9574
rfoot -23.9624 -7.60155
rtoes -6.99959
lfemur -40.7877 13.0163 -4.03737
ltibia 39.0458
lfoot 3.32273 15.2786
ltoes -17.6252
687
root 36.8453 14.4687 -0.605982 -152.93 -20.9766 165.096
lowerback 32.8198 0.446322 1.85613
upperback 6.9106 -1.00564 -5.46831
thorax -9.4293 -1.11991 -6.35187
lowerneck -20.7009 15.6985 9.65922
upperneck 6.33926 22.4024 -24.9911
head 9.67764 8.74722 -6.24704
rclavicle 5.32743e-014 4.21423e-014
rhumerus -14.7298 0.873951 -68.1288
rradius 72.855
rwrist -18.4689
rhand -21.2821 -22.1554
rfingers 7.12502
rthumb 5.10196 -52.074
lclavicle 5.32743e-014 4.21423e-014
lhumerus -7.5282 -28.4315 68.0369
lradius 75.5428
lwrist 18.8063
lhand -22.6933 -20.9827
lfingers 7.12502
lthumb 3.73931 8.96422
rfemur -67.3888 -19.7262 8.80181
rtibia 74.1739
rfoot -23.811 -7.08958
rtoes -8.54733
lfemur -41.085 13.3174 -4.41755
ltibia 40.8175
lfoot 2.01135 15.4946
ltoes -21.9253
688
root 36.683 14.4403 -0.584999 -153.36 -20.7226 165.687
lowerback 33.0627 0.52001 1.95611
upperback 6.9323 -0.900905 -5.46962
thorax -9.48891 -1.08093 -6.4456
lowerneck -20.6606 15.8958 9.63387
upperneck 6.314 22.701 -25.0224
head 9.71607 8.88796 -6.18282
rclavicle 1.35174e-014 -3.73715e-014
rhumerus -14.68 0.89028 -68.3608
rradius 72.7757
rwrist -18.6652
rhand -21.5916 -22.049
rfingers 7.12502
rthumb 4.80308 -51.9746
lclavicle 1.35174e-014 -3.73715e-014
lhumerus -8.16078 -28.1043 68.1785
lradius 75.6905
lwrist 18.7885
lhand -22.3381 -21.4079
lfingers 7.12502
lthumb 4.08232 8.53274
rfemur -67.0845 -19.4625 8.45058
rtibia 74.3542
rfoot -23.8615 -7.05508
rtoes -9.18408
lfemur -41.2552 13.9454 -4.62869
ltibia 42.5944
lfoot 0.404186 15.9482
ltoes -25.2785
